<svg width="80" height="63" viewBox="0 0 80 63" fill="none" xmlns="http://www.w3.org/2000/svg">
<path d="M79.9985 52.2632C78.6904 54.3525 76.7835 55.7737 74.8432 57.11C69.3798 60.8824 63.3691 62.5314 56.8111 62.0569C53.898 61.8576 51.0342 61.1736 48.3281 60.0307C59.2479 59.5541 68.3839 55.1404 75.7445 46.6133C77.28 47.9692 79.045 49.0204 79.9985 50.9661V52.2632Z" fill="#5FB17B"/>
<path d="M27.8789 27.6861C28.0667 16.9195 31.4423 8.22485 38.1561 0.962237C39.3453 -0.324008 40.7014 -0.317479 41.8969 0.962237C47.3046 6.79278 50.6991 13.6898 51.7297 21.7402C53.2736 33.7604 49.9105 44.1723 41.9678 52.9953C40.7056 54.3969 39.3453 54.3686 38.0622 52.9823C32.918 47.4979 29.5332 40.4825 28.3755 32.9051C28.0562 30.9594 27.9937 28.9702 27.8789 27.6861Z" fill="#5FB17B"/>
<path d="M51.0078 48.968C51.9967 46.7742 53.0941 44.6 53.9746 42.33C56.2695 36.3471 57.104 30.1161 56.6263 23.6848C56.3382 19.7932 55.5227 15.9638 54.2041 12.311C53.9954 11.7539 54.0726 11.4688 54.5921 11.249C57.0185 10.2304 59.4157 9.1248 61.8713 8.20201C63.4444 7.60568 64.7421 8.41965 65.1134 10.1368C68.0941 23.8118 64.804 35.5824 55.243 45.4487C54.1164 46.6044 52.802 47.5577 51.5669 48.598C51.3875 48.7323 51.2008 48.8558 51.0078 48.968Z" fill="#5FB17B"/>
<path d="M28.9538 49.1421C27.2388 47.586 25.4258 46.13 23.8235 44.4542C18.4158 38.7955 15.2487 31.9421 14.1409 24.057C13.5096 19.4252 13.7691 14.7086 14.9045 10.1826C15.3218 8.42839 16.5736 7.59483 18.1905 8.19987C20.5772 9.09436 22.9014 10.1586 25.2631 11.1358C25.937 11.4122 26.0496 11.7735 25.7868 12.4852C23.7901 17.9044 23.0307 23.5412 23.3291 29.3152C23.6487 35.9202 25.487 42.3481 28.6888 48.0561L29.1582 48.8983L28.9538 49.1421Z" fill="#5FB17B"/>
<path d="M9.69568 26.0195C12.0428 38.6426 18.4958 48.2013 29.038 54.8893C28.6061 54.8371 28.1721 54.7892 27.7403 54.7283C27.3084 54.6674 26.864 54.6195 26.4322 54.5259C15.2717 52.097 7.32701 45.4728 2.59802 34.6533C1.97212 33.2081 1.55485 31.6586 1.10004 30.1351C1.0062 29.844 0.968863 29.5363 0.990214 29.2299C1.01157 28.9236 1.09117 28.6248 1.2244 28.3509C1.35762 28.077 1.54179 27.8335 1.76616 27.6347C1.99054 27.4358 2.25062 27.2855 2.53125 27.1926C4.85466 26.4522 7.26655 26.0573 9.69568 26.0195Z" fill="#5FB17B"/>
<path d="M51.0078 54.9197C61.5187 48.236 67.978 38.673 70.3668 25.9062C72.0025 26.1239 73.6382 26.3415 75.2697 26.6027C75.9347 26.7169 76.5919 26.8761 77.2371 27.0793C78.6412 27.5146 79.3443 28.7813 78.9207 30.2329C75.0631 43.4371 66.6239 51.4854 53.7451 54.5062C52.848 54.7173 51.9216 54.7869 51.0078 54.9197Z" fill="#5FB17B"/>
<path d="M4.26211 46.5742C11.6539 55.1383 20.7858 59.5455 31.7473 60.1527C30.4538 60.5553 29.179 61.0581 27.8626 61.3453C17.6813 63.5696 8.72893 61.0668 1.08256 53.6562C-0.352832 52.2655 -0.36535 50.8878 1.07213 49.4819C2.08608 48.4807 3.17722 47.5558 4.26211 46.5742Z" fill="#5FB17B"/>
</svg>
