<svg width="66" height="59" viewBox="0 0 66 59" fill="none" xmlns="http://www.w3.org/2000/svg">
<path d="M17.6849 11.4279C20.8058 11.4279 23.3025 8.95719 23.3025 5.83632C23.3025 2.71545 20.8058 0.21875 17.6849 0.21875C14.564 0.21875 12.0673 2.71545 12.0673 5.83632C12.0673 8.95719 14.564 11.4279 17.6849 11.4279ZM17.6849 36.6028C18.7512 36.6028 19.1673 37.3312 19.7655 39.2036C20.6497 41.8304 23.2765 52.7275 24.1607 55.9264C24.6028 57.5387 25.435 58.2149 26.6574 58.2149C28.3218 58.2149 29.336 56.7065 28.868 55.068C28.686 54.3658 24.915 38.6055 24.3688 35.3545C23.9265 32.4938 23.8227 26.7201 23.8227 23.9893C23.8227 23.5732 24.2907 23.4172 24.5508 23.7814C26.5014 26.5122 30.0644 31.6094 30.7666 32.4417C31.5467 33.3261 32.795 33.4821 33.8095 32.9099C35.1357 32.2078 35.448 30.7772 34.9018 29.789C34.6936 29.3988 34.4076 29.0089 34.1475 28.6187L27.4117 18.7099C25.279 15.563 22.6263 14.1586 17.6849 14.1586C12.7435 14.1586 10.0908 15.563 7.95817 18.7099L1.22231 28.6187C0.962234 29.0089 0.676155 29.3988 0.468097 29.789C-0.0780563 30.7772 0.208023 32.2078 1.5604 32.9099C2.57468 33.4821 3.82302 33.3261 4.57725 32.4417C5.27943 31.6094 8.86844 26.5381 10.819 23.7814C11.0531 23.4431 11.5472 23.5732 11.5472 24.0155C11.5472 26.7461 11.4172 32.4938 10.975 35.3545C10.4549 38.6055 6.68384 54.3658 6.50177 55.068C6.03365 56.7065 7.04793 58.2149 8.7124 58.2149C9.93474 58.2149 10.767 57.5387 11.2091 55.9264C12.0933 52.7275 14.7201 41.8304 15.6043 39.2036C16.2025 37.3312 16.6186 36.6028 17.6849 36.6028ZM47.5932 11.4279C50.7142 11.4279 53.2109 8.95719 53.2109 5.83632C53.2109 2.71545 50.7142 0.21875 47.5932 0.21875C44.4725 0.21875 41.9758 2.71545 41.9758 5.83632C41.9758 8.95719 44.4725 11.4279 47.5932 11.4279ZM47.5932 36.6028C48.6336 36.6028 49.0757 37.3312 49.6738 39.2036C50.532 41.8304 53.1847 52.7275 54.0691 55.9264C54.5112 57.5387 55.3434 58.2149 56.5658 58.2149C58.2303 58.2149 59.2445 56.7065 58.7764 55.068C58.5683 54.3658 54.7972 38.6055 54.277 35.3545C53.835 32.4938 53.7049 26.7201 53.7049 23.9893C53.7049 23.5732 54.1991 23.4172 54.4331 23.7814C56.4098 26.5122 59.9726 31.6094 60.6748 32.4417C61.4551 33.3261 62.6775 33.4821 63.7177 32.9099C65.0441 32.2078 65.3562 30.7772 64.784 29.789C64.5761 29.3988 64.316 29.0089 64.0299 28.6187L57.3199 18.7099C55.1614 15.563 52.5347 14.1586 47.5932 14.1586C42.6518 14.1586 39.999 15.563 37.8665 18.7099L31.1306 28.6187C30.8445 29.0089 30.5844 29.3988 30.3764 29.789C29.8303 30.7772 30.1163 32.2078 31.4428 32.9099C32.483 33.4821 33.7054 33.3261 34.4857 32.4417C35.1879 31.6094 38.7507 26.5381 40.7274 23.7814C40.9613 23.4431 41.4556 23.5732 41.4556 24.0155C41.4556 26.7461 41.3255 32.4938 40.8834 35.3545C40.3632 38.6055 36.5922 54.3658 36.41 55.068C35.916 56.7065 36.9562 58.2149 38.6206 58.2149C39.843 58.2149 40.6493 57.5387 41.0914 55.9264C41.9758 52.7275 44.6285 41.8304 45.4867 39.2036C46.0848 37.3312 46.5269 36.6028 47.5932 36.6028Z" fill="#424AEF"/>
</svg>
